<?xml version="1.0" encoding="UTF-8" standalone="no"?>
<svg
   xmlns:dc="http://purl.org/dc/elements/1.1/"
   xmlns:cc="http://creativecommons.org/ns#"
   xmlns:rdf="http://www.w3.org/1999/02/22-rdf-syntax-ns#"
   xmlns:svg="http://www.w3.org/2000/svg"
   xmlns="http://www.w3.org/2000/svg"
   xmlns:sodipodi="http://sodipodi.sourceforge.net/DTD/sodipodi-0.dtd"
   xmlns:inkscape="http://www.inkscape.org/namespaces/inkscape"
   version="1.1"
   id="svg2"
   viewBox="0 0 744.09448819 1052.3622047"
   height="297mm"
   width="210mm"
   inkscape:version="0.91pre4 r13712"
   sodipodi:docname="asteroid.svg">
  <sodipodi:namedview
     pagecolor="#ffffff"
     bordercolor="#666666"
     borderopacity="1"
     objecttolerance="10"
     gridtolerance="10"
     guidetolerance="10"
     inkscape:pageopacity="0"
     inkscape:pageshadow="2"
     inkscape:window-width="1680"
     inkscape:window-height="988"
     id="namedview17"
     showgrid="false"
     inkscape:zoom="1.2685914"
     inkscape:cx="287.61321"
     inkscape:cy="848.57127"
     inkscape:window-x="-8"
     inkscape:window-y="-8"
     inkscape:window-maximized="1"
     inkscape:current-layer="svg2" />
  <metadata
     id="metadata16">
    <rdf:RDF>
      <cc:Work
         rdf:about="">
        <dc:format>image/svg+xml</dc:format>
        <dc:type
           rdf:resource="http://purl.org/dc/dcmitype/StillImage" />
        <dc:title></dc:title>
      </cc:Work>
    </rdf:RDF>
  </metadata>
  <defs
     id="defs14" />
  <g
     id="g4203">
    <path
       inkscape:connector-curvature="0"
       id="path3351-4"
       d="M 49.356554,0 A 44.614612,44.786867 0 0 0 35.657411,2.2200167 6.2012585,14.814118 53.553835 0 0 35.378551,1.7323151 6.2012585,14.814118 53.553835 0 0 19.778089,5.5446087 6.2012585,14.814118 53.553835 0 0 11.545082,19.334288 6.2012585,14.814118 53.553835 0 0 12.242836,19.975304 44.614612,44.786867 0 0 0 4.7413827,44.786595 44.614612,44.786867 0 0 0 4.7486266,44.974918 12.747031,8.2683444 75.13755 0 0 0.64178062,59.207637 12.747031,8.2683444 75.13755 0 0 11.90241,69.407154 12.747031,8.2683444 75.13755 0 0 12.075037,69.35165 44.614612,44.786867 0 0 0 49.356554,89.573234 44.614612,44.786867 0 0 0 93.970521,44.786626 44.614612,44.786867 0 0 0 49.356554,3.0903957e-5 Z"
       style="fill:#999999" />
    <path
       inkscape:connector-curvature="0"
       id="path3351"
       d="M 66.875044,3.9595695 A 42.719783,43.753323 0 0 1 79.680871,35.14118 42.719783,43.753323 0 0 1 36.960977,78.894421 42.719783,43.753323 0 0 1 14.59062,72.351479 a 44.614612,44.786867 0 0 0 23.636696,16.188389 8.9874424,14.080422 83.732889 0 0 0.0833,0.628895 8.9874424,14.080422 83.732889 0 0 15.785161,6.707148 8.9874424,14.080422 83.732889 0 0 12.02478,-8.60724 A 44.614612,44.786867 0 0 0 89.013625,67.491349 7.9238302,13.952832 13.073255 0 0 99.379727,55.606602 7.9238302,13.952832 13.073255 0 0 94.817772,40.223435 7.9238302,13.952832 13.073255 0 0 94.485795,40.167931 44.614612,44.786867 0 0 0 66.875044,3.9596004 Z"
       style="fill:#808080" />
    <g
       id="g4194">
      <ellipse
         style="fill:#333333"
         id="path3388"
         cx="102.04255"
         cy="31.288794"
         rx="4.1341724"
         ry="9.3018875"
         transform="matrix(0.97408166,0.22619663,-0.22619663,0.97408166,0,0)" />
      <ellipse
         style="fill:#333333;fill-opacity:1"
         id="path3392"
         cx="11.784511"
         cy="21.624929"
         rx="8.9573736"
         ry="2.9283724"
         transform="matrix(0.8044154,-0.59406722,0.59406722,0.8044154,0,0)" />
      <ellipse
         style="fill:#333333;fill-opacity:1"
         id="path3398"
         cx="-7.8139949"
         cy="56.4375"
         rx="3.9619153"
         ry="8.6128597"
         transform="matrix(0.96654439,-0.2564994,0.2564994,0.96654439,0,0)" />
      <ellipse
         style="fill:#333333"
         id="path3388-1"
         cx="94.739059"
         cy="-33.358719"
         rx="4.7032371"
         ry="9.3753939"
         transform="matrix(0.20865343,0.97798965,-0.98868536,0.15000419,0,0)" />
      <ellipse
         style="fill:#333333;fill-opacity:1"
         id="path3418"
         cx="41.562103"
         cy="34.010128"
         rx="7.9238305"
         ry="9.6464024"
         transform="matrix(0.97462052,0.22386344,-0.22386344,0.97462052,0,0)" />
      <ellipse
         style="fill:#333333;fill-opacity:1"
         id="path3420"
         cx="88.362007"
         cy="-1.448518"
         rx="7.0625448"
         ry="11.885745"
         transform="matrix(0.70007512,0.7140692,-0.7140692,0.70007512,0,0)" />
      <ellipse
         style="fill:#333333;fill-opacity:1"
         id="path3422"
         cx="10.34037"
         cy="67.929893"
         rx="7.4070587"
         ry="10.852202"
         transform="matrix(0.51124297,-0.85943622,0.85943622,0.51124297,0,0)" />
    </g>
  </g>
</svg>
