<?xml version="1.0" encoding="UTF-8" standalone="no"?>
<svg
   xmlns:dc="http://purl.org/dc/elements/1.1/"
   xmlns:cc="http://creativecommons.org/ns#"
   xmlns:rdf="http://www.w3.org/1999/02/22-rdf-syntax-ns#"
   xmlns:svg="http://www.w3.org/2000/svg"
   xmlns="http://www.w3.org/2000/svg"
   version="1.1"
   id="svg3603"
   viewBox="0 0 744.09448819 1052.3622047"
   height="297mm"
   width="210mm">
  <defs
     id="defs3605" />
  <metadata
     id="metadata3608">
    <rdf:RDF>
      <cc:Work
         rdf:about="">
        <dc:format>image/svg+xml</dc:format>
        <dc:type
           rdf:resource="http://purl.org/dc/dcmitype/StillImage" />
        <dc:title></dc:title>
      </cc:Work>
    </rdf:RDF>
  </metadata>
  <g
     id="layer1">
    <circle
       r="83.997139"
       cy="49.195076"
       cx="80.407753"
       id="path4149"
       style="fill:#ffffff;stroke:#ffffff;stroke-width:1.00572944;stroke-opacity:1;fill-opacity:0.07692308" />
    <g
       id="g4206">
      <g
         id="g4162"
         transform="matrix(0,0.55611522,-0.55611522,0,159.23452,0)">
        <path
           id="path3505-4"
           d="M 90.03128,286.33369 A 24.544786,91.378838 0 0 1 65.60802,203.83943 l 48.82817,0 a 24.544786,91.378838 0 0 1 -24.40491,82.49426 z"
           style="fill:#ff7f2a;fill-opacity:1" />
        <path
           id="path3505-4-1"
           d="m 90.0292,271.13732 a 18.940993,74.545835 0 0 1 -18.84722,-67.2979 l 37.68027,0 a 18.940993,74.545835 0 0 1 -18.83305,67.2979 z"
           style="fill:#ffcc00;fill-opacity:1" />
      </g>
      <path
         style="fill:#ff2a2a;fill-opacity:1"
         d="m 159.23429,50.002566 c -11.26578,-17.663593 -30.30066,-24.80102 -47.73262,-23.868421 -25.006715,0 -50.013381,0 -75.02009,0 0.009,15.928959 -0.0222,31.807978 -0.0129,47.736847 25.692764,0 51.385521,0 77.07828,0 16.78479,0.638688 34.87158,-7.074586 45.68756,-23.868426 z"
         id="path3435" />
      <g
         id="g4157"
         transform="matrix(0,0.55611522,-0.55611522,0,159.23452,0)">
        <path
           id="path3465"
           d="m 132.55361,147.44697 0,59.90342 a 47.521295,48.601598 0 0 1 36.77565,43.10494 49.062529,63.789598 0 0 0 10.48959,-39.30157 49.062529,63.789598 0 0 0 -47.26524,-63.70679 z"
           style="fill:#999999;fill-opacity:1" />
        <path
           id="path3465-5"
           d="m 47.26524,147.44691 0,59.90348 A 47.521295,48.601598 0 0 0 10.48959,250.45523 49.062529,63.789598 0 0 1 0,211.15368 49.062529,63.789598 0 0 1 47.26524,147.44691 Z"
           style="fill:#999999;fill-opacity:1" />
        <ellipse
           ry="51.138908"
           rx="4.7378597"
           cy="194.13162"
           cx="90.144417"
           id="path3498"
           style="fill:#999999;fill-opacity:1" />
      </g>
      <path
         style="fill:#00aad4;fill-opacity:1"
         d="M 137.50207,50.1579 A 39.14292,13.649729 0 0 0 102.16493,36.575754 l 0,27.154088 A 39.14292,13.649729 0 0 0 137.50207,50.1579 Z"
         id="path3505" />
    </g>
  </g>
</svg>
